<mxfile host="app.diagrams.net" modified="2023-03-30T12:59:19.673Z" agent="Mozilla/5.0 (Windows NT 10.0; Win64; x64) AppleWebKit/537.36 (KHTML, like Gecko) Chrome/111.0.0.0 Safari/537.36" version="21.1.1" etag="s5iUEjxzzC_vhhssv1Cd" type="github">
  <diagram name="PÃ¡gina-1" id="ZTAF0-Wrm5mamIRf5RHL">
    <mxGraphModel>
      <root>
        <mxCell id="0" />
        <mxCell id="1" parent="0" />
      </root>
    </mxGraphModel>
  </diagram>
</mxfile>
